<svg xmlns="http://www.w3.org/2000/svg" data-name="Layer 1" viewBox="0 0 128 160" x="0px" y="0px"><title>miscellaneous 57 solid</title><path d="M85,103h26a3.99891,3.99891,0,0,0,4-4V55a3.99887,3.99887,0,0,0-4-4H17a3.99887,3.99887,0,0,0-4,4V99a3.99891,3.99891,0,0,0,4,4H43a3.99891,3.99891,0,0,0,4-4V65H81V99A3.99891,3.99891,0,0,0,85,103Zm22.19-23.88a2.00388,2.00388,0,0,1,0,2.83l-4.24,4.24a2.00112,2.00112,0,0,1-2.83-2.83l4.24-4.24A2.00377,2.00377,0,0,1,107.19,79.12ZM103.3,71.7a2.0037,2.0037,0,0,1,0,2.83L95.52,82.3a1.99759,1.99759,0,1,1-2.82-2.83l7.78-7.77A1.99169,1.99169,0,0,1,103.3,71.7Zm-14.49.35,4.24-4.24a2.00112,2.00112,0,0,1,2.83,2.83l-4.24,4.24a2.0056,2.0056,0,0,1-1.42.58,1.98271,1.98271,0,0,1-1.41-.58A2.00388,2.00388,0,0,1,88.81,72.05ZM22.22,75.46a1.98271,1.98271,0,0,1-1.41-.58,2.00388,2.00388,0,0,1,0-2.83l4.24-4.24a2.00112,2.00112,0,0,1,2.83,2.83l-4.24,4.24A2.0056,2.0056,0,0,1,22.22,75.46ZM26.11,82.89a2.00506,2.00506,0,0,1-1.41-3.42l7.78-7.77a1.99757,1.99757,0,1,1,2.82,2.83L27.52,82.3A1.99314,1.99314,0,0,1,26.11,82.89Zm13.08-.94-4.24,4.24a2.00112,2.00112,0,0,1-2.83-2.83l4.24-4.24a2.00112,2.00112,0,0,1,2.83,2.83ZM81,61H47V55H81Z"/><path d="M64,69A13.01474,13.01474,0,0,0,51,82v25a2.0001,2.0001,0,0,0-2,2v7H48a2.0001,2.0001,0,0,0-2,2v8a2.0001,2.0001,0,0,0,2,2H80a2.0001,2.0001,0,0,0,2-2v-8a2.0001,2.0001,0,0,0-2-2H79v-7a2.0001,2.0001,0,0,0-2-2V82A13.01474,13.01474,0,0,0,64,69Zm2,26.65A5.99026,5.99026,0,0,0,66,84.35V73.23175A9.01025,9.01025,0,0,1,73,82v25H66ZM55,82a9.01025,9.01025,0,0,1,7-8.76825V84.35A5.99026,5.99026,0,0,0,62,95.65V107H55Zm-2,29H75v5H53Zm25,9v4H50v-4H78Z"/><path d="M116.01221,22.05762a1.97256,1.97256,0,0,0-.51221-.59473V12H126a2,2,0,0,0,1.41016-3.418l-8.0459-8A1.9982,1.9982,0,0,0,117.9541,0H10.0459A1.9982,1.9982,0,0,0,8.63574.582l-8.0459,8A2,2,0,0,0,2,12H12.5v9.46289a1.97256,1.97256,0,0,0-.51221.59473l-11.752,22A2.00014,2.00014,0,0,0,2,47H5v79a2.0001,2.0001,0,0,0,2,2H42.35a5.96038,5.96038,0,0,1-.35-2v-8a5.98709,5.98709,0,0,1,3-5.18262V109a5.96038,5.96038,0,0,1,.35-2H9V47H119v60H82.65a5.96038,5.96038,0,0,1,.35,2v3.81738A5.98709,5.98709,0,0,1,86,118v8a5.96038,5.96038,0,0,1-.35,2H121a2.0001,2.0001,0,0,0,2-2V47h3a2.00014,2.00014,0,0,0,1.76416-2.94238ZM6.84814,8l4.02295-4H117.12891l4.02295,4ZM7,43H5.33594l9.61523-18H20.416L10.80078,43Zm8.33594,0,9.61523-18H30.416L20.80078,43Zm10,0,9.61523-18H40.416L30.80078,43Zm10,0,9.61523-18H50.416L40.80078,43Zm10,0,9.61523-18H60.416L50.80078,43Zm10,0L64,26.78058,72.66406,43Zm21.86328,0L67.584,25h5.46484l9.61523,18Zm10,0L77.584,25h5.46484l9.61523,18Zm10,0L87.584,25h5.46484l9.61523,18Zm10,0L97.584,25h5.46484l9.61523,18ZM121,43h-3.80078L107.584,25h5.46484l9.61523,18Z"/></svg>